<?xml version="1.0" encoding="utf-8"?>
<!-- Generator: Adobe Illustrator 19.2.1, SVG Export Plug-In . SVG Version: 6.00 Build 0)  -->
<svg version="1.1" id="Layer_1" xmlns="http://www.w3.org/2000/svg" xmlns:xlink="http://www.w3.org/1999/xlink" x="0px" y="0px"
	 viewBox="0 0 633 329" style="enable-background:new 0 0 633 329;" xml:space="preserve">
<style type="text/css">
	.st0{enable-background:new    ;}
	.st1{fill:#D1D3D4;}
	.st2{fill:#A7A9AC;}
	.st3{fill:#58595B;}
	.st4{fill:#BCBEC0;}
</style>
<g class="st0">
	<path class="st1" d="M561.5,69.2c0-0.3,0.2-0.6,0.6-0.6h6.9c3.5,0,6.4,2.4,6.4,5.5c0,2.3-2,3.9-3.4,4.7c1.6,0.6,4,2.1,4,4.8
		c0,3.3-2.9,5.7-6.4,5.7h-7.3c-0.3,0-0.6-0.3-0.6-0.6V69.2z M568.5,77.1c1.1,0,2.1-0.9,2.1-2.1s-0.9-2-2.1-2h-2.3v4.1H568.5z
		 M568.8,85.1c1.2,0,2.1-0.9,2.1-2.2c0-1.2-1.3-2.1-2.4-2.1h-2.4v4.2H568.8z"/>
	<path class="st1" d="M579.6,69.2c0-0.3,0.2-0.6,0.6-0.6h12.2c0.3,0,0.6,0.3,0.6,0.6v3.2c0,0.3-0.2,0.6-0.6,0.6h-8.2v3.7h6.7
		c0.3,0,0.6,0.3,0.6,0.6v3.2c0,0.3-0.3,0.6-0.6,0.6h-6.7v4h8.2c0.3,0,0.6,0.3,0.6,0.6v3.2c0,0.3-0.2,0.6-0.6,0.6h-12.2
		c-0.3,0-0.6-0.3-0.6-0.6V69.2z"/>
	<path class="st1" d="M599.6,73h-4.2c-0.3,0-0.6-0.3-0.6-0.6v-3.2c0-0.3,0.2-0.6,0.6-0.6h13.1c0.3,0,0.6,0.3,0.6,0.6v3.2
		c0,0.3-0.2,0.6-0.6,0.6h-4.2v15.8c0,0.3-0.3,0.6-0.6,0.6h-3.5c-0.3,0-0.6-0.3-0.6-0.6V73z"/>
	<path class="st1" d="M608.3,88.6l9.2-19.9c0.1-0.2,0.3-0.3,0.5-0.3h0.3c0.2,0,0.4,0.1,0.5,0.3l9.2,19.9c0.2,0.4-0.1,0.8-0.5,0.8
		h-3.3c-0.5,0-0.8-0.2-1-0.7l-1.1-2.3h-8l-1.1,2.4c-0.1,0.4-0.5,0.7-1.1,0.7h-3.2C608.3,89.3,608.1,89,608.3,88.6z M620.4,82.3
		l-2.2-4.9h0l-2.2,4.9H620.4z"/>
</g>
<g>
	<path class="st2" d="M177.6,313.7l10.6-22.9c0.1-0.2,0.3-0.4,0.6-0.4h0.3c0.2,0,0.5,0.2,0.6,0.4l10.6,22.9c0.2,0.4-0.1,0.9-0.6,0.9
		h-3.8c-0.6,0-0.9-0.2-1.2-0.8l-1.2-2.7h-9.2l-1.2,2.7c-0.2,0.4-0.5,0.8-1.2,0.8h-3.7C177.7,314.6,177.4,314.1,177.6,313.7z
		 M191.6,306.4l-2.6-5.6h0l-2.5,5.6H191.6z"/>
	<path class="st2" d="M201.3,301.6c0-0.4,0.3-0.6,0.6-0.6h3.6c0.3,0,0.6,0.3,0.6,0.6v6.3c0,1.4,0.8,2.6,2.2,2.6c1.3,0,2-1.3,2-2.4
		v-6.5c0-0.5,0.4-0.6,0.7-0.6h3.5c0.3,0,0.6,0.3,0.6,0.6v12.3c0,0.3-0.3,0.6-0.6,0.6H213c-0.3,0-0.5-0.2-0.6-0.5l-0.5-1.3
		c-0.9,0.8-2,2.1-4.6,2.1c-4,0-6-3.3-6-7.1V301.6z"/>
	<path class="st2" d="M219.5,305.3h-0.9c-0.3,0-0.6-0.3-0.6-0.6v-3c0-0.4,0.3-0.6,0.6-0.6h0.9v-3.8c0-0.3,0.3-0.6,0.6-0.6h3.6
		c0.3,0,0.6,0.3,0.6,0.6v3.8h2.5c0.4,0,0.6,0.3,0.6,0.6v3c0,0.3-0.3,0.6-0.6,0.6h-2.5v4.2c0,0.7,0.5,0.8,0.9,0.8
		c0.5,0,1-0.2,1.3-0.2c0.3-0.1,0.6,0.1,0.7,0.4l0.7,2.8c0.1,0.3-0.1,0.7-0.4,0.8c0,0-2.4,0.7-4.1,0.7c-2.6,0-4.1-1.6-4.1-4.7V305.3z
		"/>
	<path class="st2" d="M230.6,291.4c0-0.3,0.3-0.6,0.6-0.6h3.8c0.3,0,0.6,0.3,0.6,0.6v10c1-0.5,2.1-0.8,3.2-0.8
		c4.3,0,6.5,3.4,6.5,7.1v6.2c0,0.3-0.3,0.6-0.6,0.6h-3.6c-0.4,0-0.6-0.3-0.6-0.6v-6.2c0-1.5-1-2.7-2.5-2.7c-1.1,0-2.3,0.6-2.3,2.7
		v6.2c0,0.4-0.2,0.6-0.7,0.6h-3.7c-0.3,0-0.6-0.3-0.6-0.6V291.4z"/>
	<path class="st2" d="M254.7,300.6c3.9,0,7.1,3.3,7.1,7.1c0,3.9-3.2,7.2-7.1,7.2c-3.9,0-7.1-3.3-7.1-7.2
		C247.6,303.9,250.8,300.6,254.7,300.6z M254.7,310.5c1.5,0,2.7-1.3,2.7-2.8c0-1.5-1.2-2.7-2.7-2.7c-1.5,0-2.7,1.2-2.7,2.7
		C252,309.3,253.2,310.5,254.7,310.5z"/>
	<path class="st2" d="M264.4,301.6c0-0.4,0.3-0.6,0.6-0.6h1.6c0.4,0,0.5,0.2,0.6,0.4l0.6,1.5c0.7-1,1.9-2.2,3.7-2.2
		c1.9,0,3.2,0.7,2.7,1.5l-1.7,2.7c-0.1,0.2-0.4,0.4-0.7,0.3c-0.2-0.1-0.5-0.2-0.8-0.2c-1,0-1.8,0.8-1.8,1.9v7c0,0.4-0.2,0.6-0.7,0.6
		H265c-0.3,0-0.6-0.3-0.6-0.6V301.6z"/>
	<path class="st2" d="M275.9,294.2c0-1.5,1.2-2.7,2.7-2.7c1.5,0,2.7,1.2,2.7,2.7c0,1.5-1.2,2.7-2.7,2.7
		C277.1,296.9,275.9,295.7,275.9,294.2z M276.1,301.6c0-0.4,0.3-0.6,0.6-0.6h3.7c0.3,0,0.6,0.3,0.6,0.6v12.3c0,0.3-0.3,0.6-0.6,0.6
		h-3.7c-0.3,0-0.6-0.3-0.6-0.6V301.6z"/>
	<path class="st2" d="M285.3,305.3h-0.9c-0.3,0-0.6-0.3-0.6-0.6v-3c0-0.4,0.3-0.6,0.6-0.6h0.9v-3.8c0-0.3,0.3-0.6,0.6-0.6h3.6
		c0.3,0,0.6,0.3,0.6,0.6v3.8h2.5c0.4,0,0.6,0.3,0.6,0.6v3c0,0.3-0.3,0.6-0.6,0.6h-2.5v4.2c0,0.7,0.5,0.8,0.9,0.8
		c0.5,0,1-0.2,1.3-0.2c0.3-0.1,0.6,0.1,0.7,0.4l0.7,2.8c0.1,0.3-0.1,0.7-0.4,0.8c0,0-2.4,0.7-4.1,0.7c-2.6,0-4.1-1.6-4.1-4.7V305.3z
		"/>
	<path class="st2" d="M296.3,294.2c0-1.5,1.2-2.7,2.7-2.7c1.5,0,2.7,1.2,2.7,2.7c0,1.5-1.2,2.7-2.7,2.7
		C297.5,296.9,296.3,295.7,296.3,294.2z M296.5,301.6c0-0.4,0.3-0.6,0.6-0.6h3.7c0.3,0,0.6,0.3,0.6,0.6v12.3c0,0.3-0.3,0.6-0.6,0.6
		h-3.7c-0.3,0-0.6-0.3-0.6-0.6V301.6z"/>
	<path class="st2" d="M311.2,300.6c3.5,0,6.5,2.7,6.5,6.4c0,0.2,0,0.7-0.1,0.9c0,0.3-0.3,0.6-0.6,0.6h-8.2c0.1,0.9,0.9,2.2,2.6,2.2
		c0.9,0,1.8-0.4,2.4-0.8c0.3-0.2,0.6-0.2,0.9,0l1.7,2c0.2,0.3,0.3,0.7,0,1c-1.2,1.2-2.9,1.9-5,1.9c-4,0-7.1-3.2-7.1-7.1
		C304.2,303.9,307.2,300.6,311.2,300.6z M312.9,305.9c-0.1-0.9-0.9-1.6-1.8-1.6c-0.9,0-1.7,0.7-1.8,1.6H312.9z"/>
	<path class="st2" d="M319.4,313.1l1.2-2.3c0.1-0.2,0.4-0.4,0.7-0.3c0,0,1.6,0.9,3.1,0.9c0.3,0,0.6-0.2,0.6-0.6
		c0-0.3-0.2-0.8-1.9-1.4c-2.7-0.9-3.8-2.4-3.8-4.6c0-2.3,1.6-4.1,5.3-4.1c2.1,0,3.8,0.6,4.5,1.1c0.3,0.2,0.5,0.5,0.3,0.8l-1.3,2.3
		c-0.1,0.2-0.4,0.3-0.7,0.2c0,0-1.6-0.8-2.9-0.8c-0.4,0-0.7,0.1-0.7,0.5c0,0.3,0.4,0.7,1.5,1.1c2.8,1,4.7,2,4.7,4.8
		c0,2.4-1.9,4.3-5.7,4.3c-2.2,0-3.9-0.6-4.6-1.1C319.4,313.6,319.2,313.4,319.4,313.1z"/>
	<path class="st2" d="M340.2,301.6c0-0.4,0.3-0.6,0.6-0.6h1.6c0.2,0,0.5,0.2,0.6,0.4l0.6,1.4c0.8-0.9,2.4-2.1,4.6-2.1
		c1.9,0,3.2,0.7,4.5,2.1c0.8-0.8,2.4-2.1,4.7-2.1c4.2,0,6.3,3.3,6.3,7.1v6.2c0,0.3-0.3,0.6-0.6,0.6h-3.6c-0.4,0-0.6-0.3-0.6-0.6
		v-6.4c0-1.4-0.7-2.5-2.3-2.5c-1.2,0-2.3,1-2.3,2.3v6.6c0,0.3-0.3,0.6-0.6,0.6h-3.3c-0.4,0-0.6-0.3-0.6-0.6v-6.4
		c0-1.4-0.6-2.5-2.1-2.5c-1.4,0-2.4,1-2.4,2.4v6.5c0,0.3-0.3,0.6-0.6,0.6h-3.6c-0.4,0-0.6-0.3-0.6-0.6V301.6z"/>
	<path class="st2" d="M371,305.9c1.5,0,2.6,0.5,2.6,0.5c0-1.3-0.2-2-1.8-2c-0.9,0-2.5,0.2-3.4,0.5c-0.5,0.2-0.7-0.2-0.8-0.7
		l-0.3-2.1c-0.1-0.6,0.2-0.8,0.5-0.9c0.3-0.1,2.7-0.5,4.5-0.5c4.2,0,5.7,1.8,5.7,5.8v7.5c0,0.3-0.3,0.6-0.6,0.6h-1.5
		c-0.2,0-0.4-0.1-0.6-0.4l-0.5-0.9c-0.8,0.7-2,1.7-4.1,1.7c-2.7,0-4.7-1.8-4.7-4.5C366.1,307.8,368,305.9,371,305.9z M371.9,311.6
		c0.8,0,1.5-0.7,1.5-1.5c0-0.8-0.7-1.4-1.5-1.4c-0.8,0-1.5,0.6-1.5,1.4C370.5,310.9,371.1,311.6,371.9,311.6z"/>
	<path class="st2" d="M387.3,300.6c1.2,0,2.4,0.4,2.8,0.6v-9.9c0-0.3,0.3-0.6,0.6-0.6h3.8c0.3,0,0.6,0.3,0.6,0.6v22.5
		c0,0.3-0.3,0.6-0.6,0.6H393c-0.3,0-0.6-0.3-0.7-0.7l-0.4-1.1c0,0-1.6,2.1-4.6,2.1c-3.8,0-6.7-3.2-6.7-7.1
		C380.6,303,383.7,300.6,387.3,300.6z M388,310.5c1.6,0,2.7-1.2,2.7-2.8c0-1.5-1.2-2.7-2.7-2.7c-1.6,0-2.8,1.2-2.8,2.7
		C385.2,309.3,386.4,310.5,388,310.5z"/>
	<path class="st2" d="M404.9,300.6c3.5,0,6.5,2.7,6.5,6.4c0,0.2,0,0.7-0.1,0.9c0,0.3-0.3,0.6-0.6,0.6h-8.2c0.1,0.9,0.9,2.2,2.6,2.2
		c0.8,0,1.8-0.4,2.4-0.8c0.3-0.2,0.6-0.2,0.8,0l1.7,2c0.2,0.3,0.3,0.7,0,1c-1.2,1.2-2.9,1.9-5,1.9c-4,0-7.1-3.2-7.1-7.1
		C397.9,303.9,400.9,300.6,404.9,300.6z M406.6,305.9c-0.1-0.9-0.9-1.6-1.8-1.6c-0.9,0-1.7,0.7-1.8,1.6H406.6z"/>
	<path class="st2" d="M426.4,324.1c0,0.3-0.3,0.6-0.6,0.6H422c-0.3,0-0.6-0.3-0.6-0.6v-22.5c0-0.3,0.3-0.6,0.6-0.6h1.6
		c0.3,0,0.6,0.3,0.7,0.7l0.4,1.1c0,0,1.6-2.1,4.6-2.1c3.8,0,6.7,3.2,6.7,7.1c0,4.8-3.1,7.1-6.8,7.1c-1.2,0-2.4-0.4-2.8-0.6V324.1z
		 M428.6,310.5c1.6,0,2.8-1.2,2.8-2.7c0-1.6-1.2-2.8-2.8-2.8c-1.6,0-2.7,1.2-2.7,2.8C425.9,309.3,427,310.5,428.6,310.5z"/>
	<path class="st2" d="M438.4,301.6c0-0.4,0.3-0.6,0.6-0.6h3.6c0.3,0,0.6,0.3,0.6,0.6v6.3c0,1.4,0.8,2.6,2.2,2.6c1.3,0,2-1.3,2-2.4
		v-6.5c0-0.5,0.4-0.6,0.7-0.6h3.5c0.3,0,0.6,0.3,0.6,0.6v12.3c0,0.3-0.3,0.6-0.6,0.6h-1.6c-0.3,0-0.5-0.2-0.6-0.5l-0.5-1.3
		c-0.9,0.8-2,2.1-4.6,2.1c-4,0-6-3.3-6-7.1V301.6z"/>
	<path class="st2" d="M456,291.4c0-0.3,0.3-0.6,0.6-0.6h3.8c0.3,0,0.6,0.3,0.6,0.6v9.9c0.4-0.2,1.7-0.6,2.8-0.6
		c3.6,0,6.8,2.3,6.8,7.1c0,3.9-2.9,7.1-6.7,7.1c-3,0-4.6-2.1-4.6-2.1l-0.4,1.1c-0.1,0.4-0.4,0.7-0.7,0.7h-1.6
		c-0.3,0-0.6-0.3-0.6-0.6V291.4z M463.3,310.5c1.6,0,2.8-1.2,2.8-2.8c0-1.5-1.2-2.7-2.8-2.7c-1.6,0-2.7,1.2-2.7,2.7
		C460.5,309.3,461.7,310.5,463.3,310.5z"/>
	<path class="st2" d="M473.4,291.4c0-0.3,0.3-0.6,0.6-0.6h3.7c0.3,0,0.6,0.3,0.6,0.6v22.5c0,0.3-0.3,0.6-0.6,0.6H474
		c-0.3,0-0.6-0.3-0.6-0.6V291.4z"/>
	<path class="st2" d="M481.9,294.2c0-1.5,1.2-2.7,2.7-2.7s2.7,1.2,2.7,2.7c0,1.5-1.2,2.7-2.7,2.7S481.9,295.7,481.9,294.2z
		 M482.1,301.6c0-0.4,0.3-0.6,0.6-0.6h3.7c0.3,0,0.6,0.3,0.6,0.6v12.3c0,0.3-0.3,0.6-0.6,0.6h-3.7c-0.3,0-0.6-0.3-0.6-0.6V301.6z"/>
	<path class="st2" d="M497.1,300.6c2.1,0,3.8,0.9,5.1,2.4c0.2,0.3,0.1,0.7-0.2,1l-2,1.9c-0.2,0.2-0.6,0.1-0.7-0.1
		c-0.5-0.5-1.2-0.9-2-0.9c-1.5,0-2.7,1.3-2.7,2.8c0,1.5,1.2,2.8,2.7,2.8c1.2,0,1.8-0.5,2.3-1.1c0.2-0.2,0.5-0.3,0.7-0.1l2,1.8
		c0.3,0.3,0.5,0.6,0.2,1c-1.3,1.9-3,2.9-5.5,2.9c-3.9,0-7.3-3.1-7.3-7.1C489.7,303.8,493.2,300.6,497.1,300.6z"/>
	<path class="st2" d="M177.8,318.8v-1.7h325.4v1.7H177.8z"/>
</g>
<g>
	<g>
		<g>
			<path class="st3" d="M170.3,101.3c14.4,0,25.1,4.5,34.8,13.4c1.3,1.2,1.3,2.9,0.1,4L194,130.4c-1,1-2.6,1-3.6,0
				c-5.3-4.8-12.4-7.3-19.4-7.3c-16.3,0-28.2,13.5-28.2,29.7c0,16,12.1,29.2,28.4,29.2c6.8,0,14.1-2.4,19.3-6.9
				c1-0.9,2.9-0.9,3.7,0.1l11.2,12c1,1,0.9,2.9-0.1,3.9c-9.8,9.5-22.2,14-35,14c-28.8,0-52-22.9-52-51.7
				C118.3,124.5,141.5,101.3,170.3,101.3z"/>
		</g>
		<g>
			<path class="st3" d="M222.6,105.5c0-1.4,1.2-2.7,2.7-2.7h17.1c1.4,0,2.7,1.3,2.7,2.7v76.9h34.3c1.6,0,2.7,1.3,2.7,2.7v15.7
				c0,1.4-1.2,2.7-2.7,2.7h-54.1c-1.6,0-2.7-1.3-2.7-2.7L222.6,105.5L222.6,105.5z"/>
		</g>
		<g>
			<path class="st3" d="M296.2,105.5c0-1.4,1.3-2.7,2.7-2.7h17.3c1.4,0,2.7,1.3,2.7,2.7v95.3c0,1.4-1.3,2.7-2.7,2.7h-17.3
				c-1.4,0-2.7-1.3-2.7-2.7V105.5z"/>
		</g>
		<g>
			<path class="st3" d="M388,101.3c28.8,0,51.8,23.2,51.8,52c0,18.7-10.8,35.7-26.6,45.4l18.6,29.1c1.2,2,0,4.3-2.3,4.3h-19.4
				c-1.2,0-1.9-0.7-2.3-1.4l-15.3-25.8c-1.7,0.1-3.5,0.1-4.5,0.1c-28.8,0-51.7-22.9-51.7-51.7C336.3,124.5,359.2,101.3,388,101.3z
				 M388,181.9c15.8,0,28.8-13,28.8-28.7c0-15.8-13-28.9-28.8-28.9c-15.7,0-28.7,13.1-28.7,28.9C359.4,169,372.3,181.9,388,181.9z"
				/>
		</g>
		<g>
			<path class="st3" d="M456.3,105.5c0-1.4,1.3-2.7,2.7-2.7h17.7c1.6,0,2.7,1.3,2.7,2.7v58.3c0,10.1,7.5,18.1,17.7,18.1
				c10.4,0,18-8.1,18-18.1v-58.3c0-1.4,1.2-2.7,2.7-2.7h17.7c1.4,0,2.7,1.3,2.7,2.7V165c0,21.9-18.4,40-41.2,40
				c-22.6,0-40.9-18.1-40.9-40v-59.5H456.3z"/>
		</g>
		<g>
			<path class="st3" d="M561.5,105.5c0-1.4,1.2-2.7,2.7-2.7h59.6c1.6,0,2.7,1.3,2.7,2.7v15.7c0,1.4-1.2,2.7-2.7,2.7H584v17.9h32.8
				c1.4,0,2.7,1.3,2.7,2.7v15.7c0,1.6-1.3,2.7-2.7,2.7H584v19.4h39.9c1.6,0,2.7,1.3,2.7,2.7v15.7c0,1.4-1.2,2.7-2.7,2.7h-59.6
				c-1.6,0-2.7-1.3-2.7-2.7v-95.2H561.5z"/>
		</g>
	</g>
	<g>
		<g>
			<path class="st4" d="M111,202.8l-31.6-2.1l-30.5-14.3l-29.7-32.7v-0.2L7.6,100.8l14.8-44.5l25.3-26.6L75,16l32.7-3.9l36,7.6
				l26.7,21.5l-27.1,27.6L116,54.1L86.8,57L62.2,78.5l-8.1,25.9l4.7,24.5L75.7,150l28.1,9.2l40.2-13.1l26.1,26.8l-26.7,21h-0.2
				L111,202.8z M79.8,199.1l31,2l32-8.6l25-19.7L143.6,148l-39.8,13l-29.1-9.5l-17.4-21.8l-4.9-25.3l8.4-26.7l25.3-22l30.2-3
				l26.7,14l25-25.5l-25-20.1l-35.4-7.5l-32.2,3.9l-27,13.6L23.8,57.2L9.3,100.9l11.3,51.9L49.8,185L79.8,199.1z"/>
		</g>
	</g>
	<g>
		<g>
			<path class="st4" d="M110.9,202.7L110.9,202.7c-0.4-0.1-0.7-0.3-0.7-0.7l-6.7-39.7l-23.1,38c-0.2,0.3-0.5,0.4-0.9,0.4
				c-0.3-0.1-0.6-0.4-0.6-0.7l-3.3-47.5L50,186.9c-0.2,0.3-0.6,0.4-1,0.3c-0.3-0.1-0.5-0.5-0.5-0.9l9.1-55.5l-38.3,22.5
				c-0.3,0.2-0.7,0.1-1-0.2s-0.3-0.7-0.1-1L52.7,105l-44.8-4c-0.2,0-0.5-0.2-0.6-0.4c-0.1-0.2-0.2-0.5-0.1-0.7l15.8-43
				c0.1-0.3,0.4-0.5,0.7-0.5c0.3,0,0.6,0.1,0.8,0.4L53.9,103l-0.7,0.5l1,0.1c0.3,0,0.5,0.2,0.7,0.5s0.1,0.6-0.1,0.8L21.9,150
				l36.5-21.4c0.3-0.2,0.6-0.1,0.9,0c0.3,0.2,0.4,0.5,0.3,0.8l-8.8,53.9l24.8-33.5c0.2-0.3,0.5-0.4,0.9-0.3c0.3,0.1,0.6,0.4,0.6,0.7
				l3.3,47.1l22.9-37.6c0.2-0.3,0.5-0.4,0.8-0.4c0.3,0.1,0.6,0.3,0.6,0.7l6.7,39.7l31.8-53.7c0.2-0.3,0.6-0.5,0.9-0.4
				c0.3,0.1,0.6,0.4,0.6,0.8l-0.7,46.9h-1.6l0.6-43.9l-31.4,53C111.4,202.6,111.2,202.7,110.9,202.7z M9.1,99.5l43.2,3.8L24,59
				L9.1,99.5z"/>
		</g>
	</g>
	<g>
		<g>
			<path class="st4" d="M61.8,78.2L48,30.7c-0.1-0.3,0-0.6,0.3-0.7c0.2-0.2,0.5-0.2,0.8,0l37.7,25.8L86,56.9L49.9,32.1l13.2,45.7
				L61.8,78.2z"/>
		</g>
	</g>
	<g>
		<g>
			<path class="st4" d="M143.2,67.3L142.8,22l-27.1,31.9c-0.1,0.2-0.4,0.2-0.6,0.2c-0.2-0.1-0.4-0.2-0.4-0.5L107.3,14L87,56.6
				c-0.1,0.2-0.3,0.4-0.6,0.3c-0.2,0-0.5-0.2-0.5-0.4L74.6,16.2l1.2-0.3l10.8,38.7l20.3-42.7c0.1-0.2,0.4-0.4,0.6-0.3
				c0.3,0,0.5,0.2,0.5,0.5l7.5,40.1L142.9,20c0.2-0.2,0.4-0.3,0.7-0.2c0.2,0.1,0.4,0.3,0.4,0.6l0.5,46.9H143.2z"/>
		</g>
	</g>
	<g>
		<g>
			<path class="st4" d="M111.4,201.3c-0.1,0-0.2,0-0.3-0.1l-51.4-50.1l-40.4,1.1c-0.1,0-0.2-0.1-0.3-0.1c-0.1-0.1-0.1-0.2-0.1-0.3
				l7.5-33L7.7,100.5c-0.1-0.1-0.1-0.2-0.1-0.3c0-0.1,0.1-0.2,0.1-0.3l28.6-24.8l10.4-45.6c0-0.2,0.2-0.3,0.4-0.3l38.2,3.4
				l22.5-19.5l0.5,0.6l-21.9,19l82.3,7.4c0.2,0,0.3,0.2,0.4,0.4c0,0.2-0.1,0.4-0.3,0.4l-52.1,12.8l-0.2-0.8l49.8-12.2l-80.7-7.3
				L37.1,75.5l-9.7,43L60,150.3l16.1-0.4c0.1,0,0.3,0.1,0.3,0.2l35.3,50.6c0.1,0.2,0.1,0.4-0.1,0.5
				C111.6,201.2,111.5,201.3,111.4,201.3z M60.8,151.1l47.8,46.6l-32.8-47L60.8,151.1z M27.1,119.4l-7.3,32l39.1-1L27.1,119.4z
				 M8.6,100.2l18.1,17.6l9.4-41.4L8.6,100.2z M47.4,30l-10,44.2l47.1-40.9L47.4,30z"/>
		</g>
	</g>
	<g>
		<g>
			<path class="st4" d="M62,78.7l-39.3-21c-0.3-0.2-0.5-0.5-0.4-0.9s0.4-0.6,0.8-0.6L84.7,55l59-36.2l0.8,1.4L85.3,56.4
				c-0.1,0.1-0.3,0.1-0.4,0.1l-58.7,1.2l36.6,19.6L62,78.7z"/>
		</g>
	</g>
	<g>
		<g>
			<path class="st4" d="M144,194.3h-0.1L19.2,152.2c-0.2-0.1-0.3-0.2-0.3-0.4L22.7,57h0.8l-3.7,94.5l122.4,41.3l-39.9-33.7
				c-0.1-0.1-0.2-0.3-0.1-0.5s0.3-0.3,0.4-0.2l66.4,14.1l-0.2,0.8L104,159.5l40.2,34c0.1,0.1,0.2,0.3,0.1,0.5
				C144.3,194.2,144.2,194.3,144,194.3z"/>
		</g>
	</g>
	<g>
		<g>
			<circle class="st1" cx="144" cy="66.8" r="4.4"/>
		</g>
	</g>
	<g>
		<g>
			<circle class="st1" cx="169.2" cy="41.2" r="4.4"/>
		</g>
	</g>
	<g>
		<g>
			<circle class="st1" cx="143.4" cy="20.4" r="3.4"/>
		</g>
	</g>
	<g>
		<g>
			<circle class="st1" cx="115.5" cy="53.3" r="4.4"/>
		</g>
	</g>
	<g>
		<g>
			<circle class="st1" cx="85.3" cy="56.5" r="4.4"/>
		</g>
	</g>
	<g>
		<g>
			<circle class="st1" cx="61.5" cy="78" r="4.4"/>
		</g>
	</g>
	<g>
		<g>
			<circle class="st1" cx="53.5" cy="103.4" r="4.4"/>
		</g>
	</g>
	<g>
		<g>
			<circle class="st1" cx="58.1" cy="129.2" r="4.4"/>
		</g>
	</g>
	<g>
		<g>
			<circle class="st1" cx="76.1" cy="150.3" r="6.7"/>
		</g>
	</g>
	<g>
		<g>
			<circle class="st1" cx="103.8" cy="160.1" r="2.7"/>
		</g>
	</g>
	<g>
		<g>
			<circle class="st1" cx="143.8" cy="147.1" r="4.4"/>
		</g>
	</g>
	<g>
		<g>
			<circle class="st1" cx="169" cy="172.9" r="4.4"/>
		</g>
	</g>
	<g>
		<g>
			<circle class="st1" cx="143.1" cy="193.3" r="2.1"/>
		</g>
	</g>
	<g>
		<g>
			<circle class="st1" cx="110.7" cy="201.3" r="4.4"/>
		</g>
	</g>
	<g>
		<g>
			<circle class="st1" cx="79.3" cy="199.2" r="4.4"/>
		</g>
	</g>
	<g>
		<g>
			<circle class="st1" cx="49.4" cy="185.7" r="2.6"/>
		</g>
	</g>
	<g>
		<g>
			<circle class="st1" cx="19.9" cy="152.3" r="4.4"/>
		</g>
	</g>
	<g>
		<g>
			<circle class="st1" cx="8.7" cy="100.2" r="4.4"/>
		</g>
	</g>
	<g>
		<g>
			<circle class="st1" cx="23.1" cy="56.8" r="8.7"/>
		</g>
	</g>
	<g>
		<g>
			<circle class="st1" cx="48" cy="30.5" r="4.4"/>
		</g>
	</g>
	<g>
		<g>
			<circle class="st1" cx="75.2" cy="16.7" r="4.4"/>
		</g>
	</g>
	<g>
		<g>
			<circle class="st1" cx="107.7" cy="12.9" r="4.4"/>
		</g>
	</g>
</g>
</svg>
